#Comment line ignore any data following # character 
#Hierarchical Translation and Rotation (.htr) file 
[Header]	
#Header keywords are followed by a single value 
FileType HTR		#Single word string
DataType HTRS		#Translation followed by rotation and scale data
FileVersion 1		#integer
NumSegments 64		#integer
NumFrames 3		#integer
DataFrameRate 30		#integer, data frame rate in this file
EulerRotationOrder ZYX
CalibrationUnits mm
RotationUnits Degrees
GlobalAxisofGravity Y
BoneLengthAxis Y
ScaleFactor 1.00
[SegmentNames&Hierarchy]
#CHILD	PARENT
Pinger_Root GLOBAL
Pelvis Pinger_Root
L_Hip Pelvis
R_Hip Pelvis
Rear_Leg01 Pelvis
Spine1 Pelvis
L_Leg01 L_Hip
L_Leg02 L_Leg01
L_Leg03 L_Leg02
L_Foot L_Leg03
L_Toe1_01 L_Foot
L_Toe2_01 L_Foot
L_Toe3_01 L_Foot
planeAlignerLeft L_Foot
L_Toe1_02 L_Toe1_01
L_Toe1_03 L_Toe1_02
L_Toe2_02 L_Toe2_01
L_Toe2_03 L_Toe2_02
L_Toe3_02 L_Toe3_01
L_Toe3_03 L_Toe3_02
planeLockWeightLeft planeAlignerLeft
R_Leg01 R_Hip
R_Leg02 R_Leg01
R_Leg03 R_Leg02
R_Foot R_Leg03
planeAlignerRight R_Foot
R_Toe1_01 R_Foot
R_Toe2_01 R_Foot
R_Toe3_01 R_Foot
planeLockWeightRight planeAlignerRight
R_Toe1_02 R_Toe1_01
R_Toe1_03 R_Toe1_02
R_Toe2_02 R_Toe2_01
R_Toe2_03 R_Toe2_02
R_Toe3_02 R_Toe3_01
R_Toe3_03 R_Toe3_02
Rear_Leg02 Rear_Leg01
Rear_Leg03 Rear_Leg02
Rear_Leg04 Rear_Leg03
Rear_Foot Rear_Leg04
planeAlignerCenter Rear_Foot
Rear_Toe1_01 Rear_Foot
Rear_Toe2_01 Rear_Foot
Rear_Toe3_01 Rear_Foot
planeLockWeightCenter planeAlignerCenter
Rear_Toe1_02 Rear_Toe1_01
Rear_Toe1_03 Rear_Toe1_02
Rear_Toe2_02 Rear_Toe2_01
Rear_Toe2_03 Rear_Toe2_02
Rear_Toe3_02 Rear_Toe3_01
Rear_Toe3_03 Rear_Toe3_02
Back_Bone Spine1
Head Spine1
Motor_Bone Back_Bone
Ping_Mechanism Back_Bone
BN_LookIK Head
bottomMouth Head
L_Mouth01 Head
L_mouthFront Head
mouthGun Head
R_Mouth01 Head
R_mouthFront Head
TopMouth Head
weapon_bone Head
[BasePosition]
#SegmentName Tx, Ty, Tz, Rx, Ry, Rz, BoneLength
Pinger_Root 0.000000 0.000000 0.000000 -90.000000 0.000000 0.000000 10.000000 
Pelvis 0.000000 0.000000 0.000000 0.000000 0.000000 0.000000 10.000000 
L_Hip 0.000000 0.000000 0.000000 0.000000 0.000000 0.000000 10.000000 
R_Hip 0.000000 0.000000 0.000000 0.000000 0.000000 0.000000 10.000000 
Rear_Leg01 0.000000 0.000000 0.000000 0.000000 0.000000 0.000000 10.000000 
Spine1 0.000000 0.000000 0.000000 0.000000 0.000000 0.000000 10.000000 
L_Leg01 0.000000 0.000000 0.000000 0.000000 0.000000 0.000000 10.000000 
L_Leg02 0.000000 0.000000 0.000000 0.000000 0.000000 0.000000 10.000000 
L_Leg03 0.000000 0.000000 0.000000 0.000000 0.000000 0.000000 10.000000 
L_Foot 0.000000 0.000000 0.000000 0.000000 0.000000 0.000000 10.000000 
L_Toe1_01 0.000000 0.000000 0.000000 0.000000 0.000000 0.000000 10.000000 
L_Toe2_01 0.000000 0.000000 0.000000 0.000000 0.000000 0.000000 10.000000 
L_Toe3_01 0.000000 0.000000 0.000000 0.000000 0.000000 0.000000 10.000000 
planeAlignerLeft 0.000000 0.000000 0.000000 0.000000 0.000000 0.000000 10.000000 
L_Toe1_02 0.000000 0.000000 0.000000 0.000000 0.000000 0.000000 10.000000 
L_Toe1_03 0.000000 0.000000 0.000000 0.000000 0.000000 0.000000 10.000000 
L_Toe2_02 0.000000 0.000000 0.000000 0.000000 0.000000 0.000000 10.000000 
L_Toe2_03 0.000000 0.000000 0.000000 0.000000 0.000000 0.000000 10.000000 
L_Toe3_02 0.000000 0.000000 0.000000 0.000000 0.000000 0.000000 10.000000 
L_Toe3_03 0.000000 0.000000 0.000000 0.000000 0.000000 0.000000 10.000000 
planeLockWeightLeft 0.000000 0.000000 0.000000 0.000000 0.000000 0.000000 10.000000 
R_Leg01 0.000000 0.000000 0.000000 0.000000 0.000000 0.000000 10.000000 
R_Leg02 0.000000 0.000000 0.000000 0.000000 0.000000 0.000000 10.000000 
R_Leg03 0.000000 0.000000 0.000000 0.000000 0.000000 0.000000 10.000000 
R_Foot 0.000000 0.000000 0.000000 0.000000 0.000000 0.000000 10.000000 
planeAlignerRight 0.000000 0.000000 0.000000 0.000000 0.000000 0.000000 10.000000 
R_Toe1_01 0.000000 0.000000 0.000000 0.000000 0.000000 0.000000 10.000000 
R_Toe2_01 0.000000 0.000000 0.000000 0.000000 0.000000 0.000000 10.000000 
R_Toe3_01 0.000000 0.000000 0.000000 0.000000 0.000000 0.000000 10.000000 
planeLockWeightRight 0.000000 0.000000 0.000000 0.000000 0.000000 0.000000 10.000000 
R_Toe1_02 0.000000 0.000000 0.000000 0.000000 0.000000 0.000000 10.000000 
R_Toe1_03 0.000000 0.000000 0.000000 0.000000 0.000000 0.000000 10.000000 
R_Toe2_02 0.000000 0.000000 0.000000 0.000000 0.000000 0.000000 10.000000 
R_Toe2_03 0.000000 0.000000 0.000000 0.000000 0.000000 0.000000 10.000000 
R_Toe3_02 0.000000 0.000000 0.000000 0.000000 0.000000 0.000000 10.000000 
R_Toe3_03 0.000000 0.000000 0.000000 0.000000 0.000000 0.000000 10.000000 
Rear_Leg02 0.000000 0.000000 0.000000 0.000000 0.000000 0.000000 10.000000 
Rear_Leg03 0.000000 0.000000 0.000000 0.000000 0.000000 0.000000 10.000000 
Rear_Leg04 0.000000 0.000000 0.000000 0.000000 0.000000 0.000000 10.000000 
Rear_Foot 0.000000 0.000000 0.000000 0.000000 0.000000 0.000000 10.000000 
planeAlignerCenter 0.000000 0.000000 0.000000 0.000000 0.000000 0.000000 10.000000 
Rear_Toe1_01 0.000000 0.000000 0.000000 0.000000 0.000000 0.000000 10.000000 
Rear_Toe2_01 0.000000 0.000000 0.000000 0.000000 0.000000 0.000000 10.000000 
Rear_Toe3_01 0.000000 0.000000 0.000000 0.000000 0.000000 0.000000 10.000000 
planeLockWeightCenter 0.000000 0.000000 0.000000 0.000000 0.000000 0.000000 10.000000 
Rear_Toe1_02 0.000000 0.000000 0.000000 0.000000 0.000000 0.000000 10.000000 
Rear_Toe1_03 0.000000 0.000000 0.000000 0.000000 0.000000 0.000000 10.000000 
Rear_Toe2_02 0.000000 0.000000 0.000000 0.000000 0.000000 0.000000 10.000000 
Rear_Toe2_03 0.000000 0.000000 0.000000 0.000000 0.000000 0.000000 10.000000 
Rear_Toe3_02 0.000000 0.000000 0.000000 0.000000 0.000000 0.000000 10.000000 
Rear_Toe3_03 0.000000 0.000000 0.000000 0.000000 0.000000 0.000000 10.000000 
Back_Bone 0.000000 0.000000 0.000000 0.000000 0.000000 0.000000 10.000000 
Head 0.000000 0.000000 0.000000 0.000000 0.000000 0.000000 10.000000 
Motor_Bone 0.000000 0.000000 0.000000 0.000000 0.000000 0.000000 10.000000 
Ping_Mechanism 0.000000 0.000000 0.000000 0.000000 0.000000 0.000000 10.000000 
BN_LookIK 0.000000 0.000000 0.000000 0.000000 0.000000 0.000000 10.000000 
bottomMouth 0.000000 0.000000 0.000000 0.000000 0.000000 0.000000 10.000000 
L_Mouth01 0.000000 0.000000 0.000000 0.000000 0.000000 0.000000 10.000000 
L_mouthFront 0.000000 0.000000 0.000000 0.000000 0.000000 0.000000 10.000000 
mouthGun 0.000000 0.000000 0.000000 0.000000 0.000000 0.000000 10.000000 
R_Mouth01 0.000000 0.000000 0.000000 0.000000 0.000000 0.000000 10.000000 
R_mouthFront 0.000000 0.000000 0.000000 0.000000 0.000000 0.000000 10.000000 
TopMouth 0.000000 0.000000 0.000000 0.000000 0.000000 0.000000 10.000000 
weapon_bone 0.000000 0.000000 0.000000 0.000000 0.000000 0.000000 10.000000 
#Beginning of Data. Separated by tabs
#Fr	Tx	Ty	Tz	Rx	Ry	Rz	SF
[Pinger_Root]
40 0.000000 0.000000 0.000000 -0.000075 -0.000000 -0.000020 0.000000
41 0.000000 0.000000 0.000000 -0.000075 -0.000000 -0.000020 0.000000
42 0.000000 0.000000 0.000000 -0.000075 -0.000000 -0.000020 0.000000
[Pelvis]
40 146.652374 1387.071899 3842.197510 -88.196854 -79.843056 86.998428 4087.536621
41 206.572006 1288.541992 3919.721191 -78.706795 -80.190811 78.242287 4131.250000
42 264.439270 1181.508301 3997.244385 -66.798409 -80.933105 66.744637 4176.583984
[L_Hip]
40 5.766392 125.831482 872.656799 160.158691 -45.484905 122.312202 881.701050
41 5.766392 125.831482 872.656799 160.158691 -45.484905 122.312202 881.701050
42 5.766392 125.831482 872.656799 160.158691 -45.484894 122.312187 881.701050
[R_Hip]
40 5.765438 125.836372 -872.654907 -91.432472 60.656986 -29.289604 881.699829
41 5.765438 125.836372 -872.654907 -89.745995 61.996735 -25.197546 881.699829
42 5.765438 125.836372 -872.654907 -87.925797 65.221710 -17.689293 881.699829
[Rear_Leg01]
40 -192.298416 -925.602966 -0.001907 175.898010 1.349279 -139.702164 945.367432
41 -192.298416 -925.602966 -0.001907 176.934601 1.128631 -140.507492 945.367432
42 -192.298416 -925.602966 -0.001907 177.838806 1.232463 -140.612701 945.367432
[Spine1]
40 290.604584 5.007505 0.000477 -5.096115 1.104503 21.904848 290.647736
41 290.604584 5.007505 0.000477 -6.734657 0.061667 19.879980 290.647736
42 290.604584 5.007505 0.000477 -7.676081 -1.418652 18.492594 290.647736
[L_Leg01]
40 761.932007 -0.002384 -0.069261 35.015705 -40.271172 20.588758 761.932068
41 761.932007 -0.002384 -0.069261 33.020447 -36.939682 15.461110 761.932068
42 761.932007 -0.002384 -0.069261 32.816936 -31.900761 6.182092 761.932068
[L_Leg02]
40 1441.140503 -0.000954 -0.000715 1.097733 -0.316648 -134.062897 1441.140503
41 1441.140503 -0.000954 -0.000715 -0.020397 0.075441 -125.412659 1441.140503
42 1441.140503 -0.000954 -0.000715 -1.074278 0.449989 -113.833206 1441.140503
[L_Leg03]
40 1686.963989 -0.000715 -0.000954 0.036473 -0.010554 101.035965 1686.963989
41 1686.963989 -0.000715 -0.000954 0.036578 -0.010185 99.877647 1686.963989
42 1686.963989 -0.000715 -0.000954 0.036565 -0.010232 100.026161 1686.963989
[L_Foot]
40 3041.570068 -30.715107 11.297464 -22.461298 29.341923 42.014294 3041.746094
41 3041.570068 -30.715107 11.297464 -19.829565 26.431055 40.852467 3041.746094
42 3041.570068 -30.715107 11.297464 -17.040133 23.032887 38.493340 3041.746094
[L_Toe1_01]
40 -188.216690 -224.732346 -21.137953 94.191246 -7.518250 179.909424 293.899567
41 -188.216690 -224.732346 -21.137953 94.191368 -7.519845 179.909149 293.899567
42 -188.216690 -224.732346 -21.137953 94.191483 -7.521437 179.908890 293.899567
[L_Toe2_01]
40 200.746536 -219.926590 148.838394 -98.193222 -36.571735 -34.803730 332.896027
41 200.746536 -219.926590 148.838394 -98.193222 -36.571735 -34.803730 332.896027
42 200.746536 -219.926590 148.838394 -98.193222 -36.571735 -34.803730 332.896027
[L_Toe3_01]
40 188.832520 -219.859131 -191.078659 -96.679802 25.038572 -61.562389 347.140900
41 188.832520 -219.859131 -191.078659 -96.679802 25.038572 -61.562389 347.140900
42 188.832520 -219.859131 -191.078659 -96.679802 25.038572 -61.562389 347.140900
[planeAlignerLeft]
40 0.812531 -811.448792 -0.314951 0.000000 -90.000000 -90.001900 811.449280
41 0.812531 -811.448792 -0.314951 0.000000 -90.000000 -90.001900 811.449280
42 0.812531 -811.448792 -0.314951 0.000000 -90.000000 -90.001900 811.449280
[L_Toe1_02]
40 413.761139 0.000477 0.000000 0.001661 0.066818 0.001661 413.761139
41 413.761139 0.000477 0.000000 0.001661 0.066694 0.001661 413.761139
42 413.761139 0.000477 0.000000 0.001661 0.066570 0.001661 413.761139
[L_Toe1_03]
40 464.317322 0.000358 -0.000089 0.001673 -0.448396 -0.003292 464.317322
41 464.317322 0.000358 -0.000089 0.001673 -0.448396 -0.003292 464.317322
42 464.317322 0.000358 -0.000089 0.001673 -0.448396 -0.003292 464.317322
[L_Toe2_02]
40 342.235809 -0.000477 0.000238 0.004684 -81.217545 0.004684 342.235809
41 342.235809 -0.000477 0.000238 0.004684 -81.217972 0.004684 342.235809
42 342.235809 -0.000477 0.000238 0.004684 -81.218506 0.004684 342.235809
[L_Toe2_03]
40 420.210846 -0.000715 0.000000 179.993240 43.061138 -179.999130 420.210846
41 420.210846 -0.000715 0.000000 179.993240 43.061138 -179.999130 420.210846
42 420.210846 -0.000715 0.000000 179.993240 43.061138 -179.999130 420.210846
[L_Toe3_02]
40 329.270111 0.000954 0.000000 0.004676 -84.586296 0.004676 329.270111
41 329.270111 0.000954 0.000000 0.004676 -84.586296 0.004676 329.270111
42 329.270111 0.000954 0.000000 0.004676 -84.586296 0.004676 329.270111
[L_Toe3_03]
40 439.137451 -0.001907 0.000954 179.993500 35.788990 -179.998657 439.137451
41 439.137451 -0.001907 0.000954 179.993500 35.788990 -179.998657 439.137451
42 439.137451 -0.001907 0.000954 179.993500 35.788990 -179.998657 439.137451
[planeLockWeightLeft]
40 -0.000954 0.000238 -0.000305 -0.011826 -0.004376 0.005620 0.001029
41 -0.000954 0.000238 -0.000305 -0.011826 -0.004376 0.005620 0.001029
42 -0.000954 0.000238 -0.000305 -0.011826 -0.004376 0.005620 0.001029
[R_Leg01]
40 761.455627 -0.001907 -0.000358 116.251846 4.129228 96.953621 761.455688
41 761.455627 -0.001907 -0.000358 115.890610 1.126272 95.093300 761.455688
42 761.455627 -0.001907 -0.000358 116.109322 -4.995094 90.756622 761.455688
[R_Leg02]
40 1441.140625 0.000000 -0.000238 -0.764707 0.010961 -97.447678 1441.140625
41 1441.140625 0.000000 -0.000238 -0.730392 0.015024 -98.261383 1441.140625
42 1441.140625 0.000000 -0.000238 -0.776685 0.000204 -100.995041 1441.140625
[R_Leg03]
40 1686.963989 0.000954 0.001431 0.062863 -0.034269 127.507820 1686.963989
41 1686.963989 0.000954 0.001431 0.061887 -0.031822 127.083237 1686.963989
42 1686.963989 0.000954 0.001431 0.061813 -0.031966 127.350830 1686.963989
[R_Foot]
40 3041.560059 -30.531288 -11.204481 -3.785460 -0.695373 49.618134 3041.734131
41 3041.560059 -30.531288 -11.204481 -4.924804 -3.040940 50.074791 3041.734131
42 3041.560059 -30.531288 -11.204481 -6.066039 -5.515287 50.951355 3041.734131
[planeAlignerRight]
40 -0.635147 -812.270569 -0.364304 0.000000 -89.960434 -90.005180 812.270874
41 -0.635147 -812.270569 -0.364304 0.000000 -89.960434 -90.005180 812.270874
42 -0.635147 -812.270569 -0.364304 0.000000 -89.960434 -90.005180 812.270874
[R_Toe1_01]
40 -188.383347 -224.864899 21.052242 77.501549 2.585606 -171.439743 294.101532
41 -188.383347 -224.864899 21.052242 77.501549 2.585687 -171.439850 294.101532
42 -188.383347 -224.864899 21.052242 77.501549 2.585769 -171.439957 294.101532
[R_Toe2_01]
40 200.637817 -220.002121 -148.787384 -87.001190 41.731930 -47.413029 332.857574
41 200.637817 -220.002121 -148.787384 -87.001183 41.732323 -47.412872 332.857574
42 200.637817 -220.002121 -148.787384 -87.001160 41.732716 -47.412708 332.857574
[R_Toe3_01]
40 188.606735 -220.092957 191.126343 -74.774231 -14.746103 -63.949142 347.192566
41 188.606735 -220.092957 191.126343 -74.774231 -14.746103 -63.949142 347.192566
42 188.606735 -220.092957 191.126343 -74.774231 -14.746103 -63.949142 347.192566
[planeLockWeightRight]
40 -0.000477 0.000000 0.000000 -0.011823 -0.004379 -0.000027 0.000477
41 -0.000477 0.000000 0.000000 -0.011823 -0.004379 -0.000027 0.000477
42 -0.000477 0.000000 0.000000 -0.011823 -0.004379 -0.000027 0.000477
[R_Toe1_02]
40 413.762085 0.000477 -0.000119 0.001417 -21.787806 0.001417 413.762085
41 413.762085 0.000477 -0.000119 0.001417 -21.786774 0.001417 413.762085
42 413.762085 0.000477 -0.000119 0.001417 -21.785736 0.001417 413.762085
[R_Toe1_03]
40 464.317810 0.000000 0.001088 0.000899 28.911314 -0.003161 464.317810
41 464.317810 0.000000 0.001088 0.000899 28.911495 -0.003161 464.317810
42 464.317810 0.000000 0.001088 0.000899 28.911674 -0.003161 464.317810
[R_Toe2_02]
40 342.234741 -0.000954 0.000238 -0.002334 -78.705650 -0.002334 342.234741
41 342.234741 -0.000954 0.000238 -0.002334 -78.702843 -0.002334 342.234741
42 342.234741 -0.000954 0.000238 -0.002334 -78.699966 -0.002334 342.234741
[R_Toe2_03]
40 420.210846 0.000715 -0.000268 -179.994690 71.300629 -179.998230 420.210846
41 420.210846 0.000715 -0.000268 -179.994690 71.300629 -179.998230 420.210846
42 420.210846 0.000715 -0.000268 -179.994690 71.300629 -179.998230 420.210846
[R_Toe3_02]
40 329.270355 -0.000477 -0.000954 0.001175 -84.058647 0.001175 329.270355
41 329.270355 -0.000477 -0.000954 0.001175 -84.059311 0.001175 329.270355
42 329.270355 -0.000477 -0.000954 0.001175 -84.059998 0.001175 329.270355
[R_Toe3_03]
40 439.137939 0.000238 0.001431 -179.995346 57.500637 -179.988052 439.137939
41 439.137939 0.000238 0.001431 -179.995346 57.500515 -179.988052 439.137939
42 439.137939 0.000238 0.001431 -179.995346 57.500351 -179.988052 439.137939
[Rear_Leg02]
40 1162.777710 -0.029802 0.005960 0.327043 9.967479 -88.222572 1162.777710
41 1162.777710 -0.029802 0.005960 0.044971 7.905125 -89.856514 1162.777710
42 1162.777710 -0.029802 0.005960 -0.220240 6.092833 -92.360878 1162.777710
[Rear_Leg03]
40 607.192505 -0.013351 -0.073195 0.006557 -0.001841 59.574043 607.192505
41 607.192505 -0.013351 -0.073195 0.006546 -0.001879 60.253326 607.192505
42 607.192505 -0.013351 -0.073195 0.006529 -0.001937 61.262291 607.192505
[Rear_Leg04]
40 995.874512 -0.020504 -0.011921 -0.039221 -0.018255 49.352940 995.874573
41 995.874512 -0.020504 -0.011921 -0.039411 -0.017840 50.564159 995.874573
42 995.874512 -0.020504 -0.011921 -0.039698 -0.017191 52.442097 995.874573
[Rear_Foot]
40 3096.176270 -0.067472 -0.041425 65.722343 81.440331 -96.615906 3096.176270
41 3096.176270 -0.067472 -0.041425 79.224243 83.596329 -84.782341 3096.176270
42 3096.176270 -0.067472 -0.041425 99.885651 84.993126 -65.965706 3096.176270
[planeAlignerCenter]
40 0.350077 0.966311 -838.790894 0.000009 0.000003 -179.999985 838.791565
41 0.350077 0.966311 -838.790894 0.000009 0.000003 -179.999985 838.791565
42 0.350077 0.966311 -838.790894 0.000009 0.000003 -179.999985 838.791565
[Rear_Toe1_01]
40 0.653352 83.966492 -371.173737 -30.751722 22.810919 86.595467 380.553192
41 0.653352 83.966492 -371.173737 -30.751719 22.810617 86.595352 380.553192
42 0.653352 83.966492 -371.173737 -30.538084 22.987455 86.944099 380.553192
[Rear_Toe2_01]
40 178.200760 -294.826019 -362.060547 -8.137070 -0.234360 -62.257290 499.765686
41 178.200760 -294.826019 -362.060547 -8.137130 -0.234603 -62.257278 499.765686
42 178.200760 -294.826019 -362.060547 -8.111108 -0.092516 -62.353069 499.765686
[Rear_Toe3_01]
40 -153.359680 -308.780914 -362.060852 3.734510 13.515397 -102.731003 499.952881
41 -153.359680 -308.780914 -362.060852 3.734534 13.515147 -102.731033 499.952881
42 -153.359680 -308.780914 -362.060852 3.766039 14.313659 -103.048653 499.952881
[planeLockWeightCenter]
40 -0.000062 0.000238 0.000000 -0.011814 -0.004373 -0.000015 0.000246
41 -0.000062 0.000238 0.000000 -0.011814 -0.004373 -0.000015 0.000246
42 -0.000062 0.000238 0.000000 -0.011814 -0.004373 -0.000015 0.000246
[Rear_Toe1_02]
40 379.707825 0.194073 0.000477 -0.006719 -30.024891 -0.006719 379.707855
41 379.707825 0.194073 0.000477 -0.006719 -30.024710 -0.006719 379.707855
42 379.707825 0.194073 0.000477 -0.006714 -30.193720 -0.006714 379.707855
[Rear_Toe1_03]
40 500.129700 0.165701 0.000119 -179.994797 70.675194 -179.998352 500.129761
41 500.129700 0.165701 0.000119 -179.994797 70.674973 -179.998352 500.129761
42 500.129700 0.165701 0.000119 -179.994629 71.641823 -179.998184 500.129761
[Rear_Toe2_02]
40 340.494507 0.000238 -0.000954 0.001661 0.065611 0.001661 340.494507
41 340.494507 0.000238 -0.000954 0.001661 0.065782 0.001661 340.494507
42 340.494507 0.000238 -0.000954 0.001661 0.065952 0.001661 340.494507
[Rear_Toe2_03]
40 433.103577 0.000000 0.000238 -0.003297 -0.804494 0.001683 433.103546
41 433.103577 0.000000 0.000238 -0.003297 -0.804494 0.001683 433.103546
42 433.103577 0.000000 0.000238 -0.003297 -0.804494 0.001683 433.103546
[Rear_Toe3_02]
40 340.494141 -0.000358 -0.000477 -0.002600 -36.670113 -0.002600 340.494171
41 340.494141 -0.000358 -0.000477 -0.002600 -36.670113 -0.002600 340.494171
42 340.494141 -0.000358 -0.000477 -0.002578 -38.603329 -0.002578 340.494171
[Rear_Toe3_03]
40 433.103577 0.001431 -0.000238 0.006396 30.730234 -0.001649 433.103546
41 433.103577 0.001431 -0.000238 0.006396 30.730234 -0.001649 433.103546
42 433.103577 0.001431 -0.000238 0.006431 32.616901 -0.001542 433.103546
[Back_Bone]
40 1312.175781 -701.934692 0.000954 7.643503 -17.481585 -88.035408 1488.125488
41 1312.175781 -701.934692 0.000954 4.809483 -14.434089 -86.272415 1488.125488
42 1312.175781 -701.934692 0.000954 2.053279 -11.408907 -84.917107 1488.125488
[Head]
40 1406.159424 809.709290 0.001431 2.048659 -0.711059 35.751770 1622.625488
41 1406.159424 809.709290 0.001431 3.251010 -0.199416 33.233673 1622.625488
42 1406.159424 809.709290 0.001431 3.721942 0.215850 30.963436 1622.625488
[Motor_Bone]
40 1158.364380 -417.834747 0.000477 -2.116797 -10.059822 -116.964836 1231.419434
41 1158.364380 -417.834747 0.000477 -1.581151 -7.683377 -116.825676 1231.419434
42 1158.364380 -417.834747 0.000477 -1.621503 -4.647994 -116.553314 1231.419434
[Ping_Mechanism]
40 1257.644165 -459.413177 -12.913635 0.000103 -0.000053 82.120995 1338.990723
41 1258.975098 -456.438965 -4.747013 0.000103 -0.000053 82.120995 1339.170410
42 1256.656372 -452.357269 5.672063 0.000103 -0.000053 82.120995 1335.606567
[BN_LookIK]
40 193.241119 1380.371704 -0.002861 0.000000 89.965736 -31.038179 1393.832153
41 193.241119 1380.371704 -0.002861 0.000000 89.965736 -31.038179 1393.832153
42 193.241119 1380.371704 -0.002861 0.000000 89.965736 -31.038179 1393.832153
[bottomMouth]
40 -435.092926 615.759399 -0.000954 -0.000022 0.000016 73.527184 753.966492
41 -435.092926 615.759399 -0.000954 -0.000022 0.000016 73.527184 753.966492
42 -435.092926 615.759399 -0.000954 -0.000022 0.000016 73.527184 753.966492
[L_Mouth01]
40 554.440979 7.658243 838.222046 150.204178 23.759130 109.605339 1005.027161
41 554.440979 7.658243 838.222046 150.204178 23.759130 109.605339 1005.027161
42 554.440979 7.658243 838.222046 150.204178 23.759130 109.605339 1005.027161
[L_mouthFront]
40 551.629089 934.514771 339.150421 0.000081 2.804060 79.119301 1136.941284
41 551.629089 934.514771 339.150421 0.000081 2.804060 79.119301 1136.941284
42 551.629089 934.514771 339.150421 0.000081 2.804060 79.119301 1136.941284
[mouthGun]
40 55.332661 1627.420898 0.000000 0.000023 0.000009 -11.038128 1628.361328
41 55.332661 1627.420898 0.000000 0.000023 0.000009 -11.038128 1628.361328
42 55.332661 1627.420898 0.000000 0.000023 0.000009 -11.038128 1628.361328
[R_Mouth01]
40 554.442383 7.659197 -838.223938 29.795891 -23.759109 109.605331 1005.029541
41 554.442383 7.659197 -838.223938 29.795891 -23.759109 109.605331 1005.029541
42 554.442383 7.659197 -838.223938 29.795891 -23.759109 109.605331 1005.029541
[R_mouthFront]
40 551.629089 934.514282 -339.151367 0.000029 -2.803930 79.119133 1136.941162
41 551.629089 934.514282 -339.151367 0.000029 -2.803930 79.119133 1136.941162
42 551.629089 934.514282 -339.151367 0.000029 -2.803930 79.119133 1136.941162
[TopMouth]
40 461.269867 -56.106091 -0.008583 -0.000059 -0.000268 92.025169 464.669525
41 461.269867 -56.106091 -0.008583 -0.000059 -0.000268 92.025169 464.669525
42 461.269867 -56.106091 -0.008583 -0.000059 -0.000268 92.025169 464.669525
[weapon_bone]
40 -987.239868 1448.372803 0.001431 0.000000 89.965736 -31.038221 1752.833740
41 -987.239868 1448.372803 0.001431 0.000000 89.965736 -31.038221 1752.833740
42 -987.239868 1448.372803 0.001431 0.000000 89.965736 -31.038221 1752.833740
